<svg width="70" height="70" viewBox="0 0 70 70" fill="none" xmlns="http://www.w3.org/2000/svg">
<rect width="70" height="70" rx="10" fill="#FFEFEA"/>
<path d="M35.0003 30C36.3264 30 37.5982 30.5268 38.5359 31.4645C39.4735 32.4021 40.0003 33.6739 40.0003 35C40.0003 36.3261 39.4735 37.5979 38.5359 38.5355C37.5982 39.4732 36.3264 40 35.0003 40C33.6742 40 32.4025 39.4732 31.4648 38.5355C30.5271 37.5979 30.0003 36.3261 30.0003 35C30.0003 33.6739 30.5271 32.4021 31.4648 31.4645C32.4025 30.5268 33.6742 30 35.0003 30ZM35.0003 22.5C43.3337 22.5 50.4503 27.6833 53.3337 35C50.4503 42.3167 43.3337 47.5 35.0003 47.5C26.667 47.5 19.5503 42.3167 16.667 35C19.5503 27.6833 26.667 22.5 35.0003 22.5ZM20.3003 35C21.6474 37.7505 23.7392 40.0679 26.3378 41.6888C28.9364 43.3096 31.9377 44.1689 35.0003 44.1689C38.063 44.1689 41.0642 43.3096 43.6629 41.6888C46.2615 40.0679 48.3532 37.7505 49.7003 35C48.3532 32.2495 46.2615 29.9321 43.6629 28.3112C41.0642 26.6904 38.063 25.8311 35.0003 25.8311C31.9377 25.8311 28.9364 26.6904 26.3378 28.3112C23.7392 29.9321 21.6474 32.2495 20.3003 35Z" fill="#BF6A4B"/>
</svg>
