<svg width="70" height="70" viewBox="0 0 70 70" fill="none" xmlns="http://www.w3.org/2000/svg">
<rect width="70" height="70" rx="10" fill="#FFEFEA"/>
<path d="M31.6214 45H38.378C38.598 42.9966 39.6197 41.3433 41.278 39.5383C41.4664 39.335 42.6647 38.0933 42.8064 37.9166C43.9835 36.446 44.7213 34.6728 44.9349 32.8012C45.1484 30.9297 44.829 29.0359 44.0134 27.3379C43.1978 25.6399 41.9192 24.2068 40.3249 23.2036C38.7305 22.2004 36.8852 21.668 35.0015 21.6676C33.1178 21.6672 31.2723 22.1988 29.6775 23.2013C28.0827 24.2038 26.8034 25.6364 25.9871 27.334C25.1708 29.0317 24.8506 30.9253 25.0633 32.797C25.2761 34.6687 26.0132 36.4422 27.1897 37.9133C27.333 38.0916 28.5347 39.335 28.7197 39.5366C30.3797 41.3433 31.4014 42.9966 31.6214 45ZM38.333 48.3333H31.6664V50H38.333V48.3333ZM24.5897 40C23.02 38.0388 22.0363 35.6741 21.7518 33.1782C21.4673 30.6824 21.8937 28.157 22.9818 25.8929C24.0699 23.6288 25.7754 21.7181 27.9019 20.3809C30.0285 19.0438 32.4895 18.3346 35.0015 18.335C37.5135 18.3354 39.9743 19.0454 42.1004 20.3832C44.2265 21.721 45.9314 23.6323 47.0188 25.8967C48.1061 28.1612 48.5317 30.6867 48.2464 33.1825C47.9612 35.6782 46.9767 38.0426 45.4064 40.0033C44.373 41.29 41.6664 43.3333 41.6664 45.8333V50C41.6664 50.884 41.3152 51.7319 40.69 52.357C40.0649 52.9821 39.2171 53.3333 38.333 53.3333H31.6664C30.7823 53.3333 29.9345 52.9821 29.3093 52.357C28.6842 51.7319 28.333 50.884 28.333 50V45.8333C28.333 43.3333 25.6247 41.29 24.5897 40ZM36.6664 31.6733H40.833L33.333 41.6733V35.0066H29.1664L36.6664 25V31.675V31.6733Z" fill="#BF6A4B"/>
</svg>
