<svg width="70" height="70" viewBox="0 0 70 70" fill="none" xmlns="http://www.w3.org/2000/svg">
<rect width="70" height="70" rx="10" fill="#FFEFEA"/>
<path d="M50.0003 28.3333C50.8844 28.3333 51.7322 28.6845 52.3573 29.3096C52.9825 29.9348 53.3337 30.7826 53.3337 31.6667V38.3333C53.3337 39.2174 52.9825 40.0652 52.3573 40.6904C51.7322 41.3155 50.8844 41.6667 50.0003 41.6667H48.2303C47.824 44.8888 46.2558 47.852 43.8199 50C41.384 52.148 38.248 53.3333 35.0003 53.3333V50C37.6525 50 40.196 48.9464 42.0714 47.0711C43.9468 45.1957 45.0003 42.6522 45.0003 40V30C45.0003 27.3478 43.9468 24.8043 42.0714 22.9289C40.196 21.0536 37.6525 20 35.0003 20C32.3482 20 29.8046 21.0536 27.9293 22.9289C26.0539 24.8043 25.0003 27.3478 25.0003 30V41.6667H20.0003C19.1163 41.6667 18.2684 41.3155 17.6433 40.6904C17.0182 40.0652 16.667 39.2174 16.667 38.3333V31.6667C16.667 30.7826 17.0182 29.9348 17.6433 29.3096C18.2684 28.6845 19.1163 28.3333 20.0003 28.3333H21.7703C22.177 25.1115 23.7455 22.1488 26.1813 20.0011C28.6171 17.8535 31.7529 16.6685 35.0003 16.6685C38.2477 16.6685 41.3835 17.8535 43.8194 20.0011C46.2552 22.1488 47.8236 25.1115 48.2303 28.3333H50.0003ZM27.9337 41.3083L29.7003 38.4817C31.2888 39.4767 33.1259 40.003 35.0003 40C36.8747 40.003 38.7119 39.4767 40.3003 38.4817L42.067 41.3083C39.9491 42.6352 37.4996 43.3372 35.0003 43.3333C32.5011 43.3372 30.0516 42.6352 27.9337 41.3083Z" fill="#BF6A4B"/>
</svg>
